<svg xmlns="http://www.w3.org/2000/svg" viewBox="0 0 64 64" fill="none">
  <defs>
    <linearGradient id="brandGradient" x1="0%" y1="0%" x2="100%" y2="100%">
      <stop offset="0%" style="stop-color:#A855F7;stop-opacity:1" />
      <stop offset="100%" style="stop-color:#10B981;stop-opacity:1" />
    </linearGradient>
  </defs>
  <!-- Background Circle -->
  <circle cx="32" cy="32" r="30" fill="url(#brandGradient)"/>
  <!-- Letter S -->
  <path d="M32 14C24.268 14 18 19.373 18 26c0 4.418 2.686 8.166 6.5 10.5C28.314 38.833 32 41.582 32 46c0 2.209-1.791 4-4 4h-6v6h10c5.523 0 10-4.477 10-10 0-4.418-2.686-8.166-6.5-10.5C31.686 33.167 28 30.418 28 26c0-2.209 1.791-4 4-4h6v-6h-6z" fill="white"/>
  <!-- Scent waves -->
  <path d="M44 18c2 2 2 5 0 7" stroke="white" stroke-width="2" stroke-linecap="round" opacity="0.8"/>
  <path d="M48 15c3 3 3 8 0 11" stroke="white" stroke-width="2" stroke-linecap="round" opacity="0.6"/>
</svg>
